<svg width="58" height="37" viewBox="0 0 58 37" fill="none" xmlns="http://www.w3.org/2000/svg">
<g clip-path="url(#clip0_5252_7173)">
<path d="M28.1029 10.074C26.064 9.10707 23.8001 8.71418 21.5546 8.93753C19.3293 9.1397 17.2069 9.96856 15.4335 11.328C13.2019 13.0956 11.7062 15.6289 11.2365 18.4367L11.0484 19.4203L10.0687 19.5927C9.19098 19.7386 8.32988 19.9709 7.49793 20.2863C6.80251 20.5477 6.14389 20.8981 5.53854 21.3287C5.1025 21.6441 4.70756 22.0127 4.3629 22.426C3.36694 23.6523 2.83916 25.1926 2.87376 26.7719C2.89066 28.3953 3.40946 29.9736 4.35898 31.2903C4.71526 31.7838 5.1312 32.2313 5.59732 32.6227C6.08417 33.0272 6.62995 33.3549 7.21578 33.5946C7.8558 33.8532 8.52604 34.0297 9.21045 34.1197H37.6413C38.9123 33.8325 40.1384 33.3737 41.2858 32.7559C42.2607 32.2338 43.1141 31.5113 43.7899 30.6359C44.7696 29.3309 45.2516 27.5008 45.2712 25.5924C45.3312 23.6846 44.843 21.7997 43.8643 20.1609C43.6044 19.7582 43.3093 19.3792 42.9826 19.0284C42.3361 18.3237 41.5482 17.7633 40.6703 17.3838C39.7925 17.0043 38.8445 16.8142 37.8882 16.8261C36.8802 16.8265 35.8787 16.9879 34.9216 17.3041C32.9191 14.4748 31.4378 11.6768 28.1029 10.074ZM16.2016 23.3273C15.9085 23.3185 15.6181 23.3861 15.3591 23.5235C15.1 23.6609 14.8812 23.8634 14.7242 24.1111C14.3345 24.7541 14.1487 25.5001 14.1912 26.2508C14.1912 28.1396 14.911 29.084 16.3505 29.084C16.7776 29.0857 17.2027 29.025 17.6123 28.9038C18.0042 28.7823 18.4314 28.6373 18.8428 28.4688V30.6907C17.9676 31.0703 17.0223 31.2613 16.0683 31.2511C14.587 31.2511 13.4506 30.8214 12.659 29.9618C11.8674 29.1023 11.4755 27.8588 11.4833 26.2312C11.4627 25.3053 11.6586 24.3874 12.0555 23.5507C12.416 22.8063 12.9922 22.1878 13.7092 21.7755C14.4838 21.3457 15.3591 21.1306 16.2447 21.1524C17.2972 21.1512 18.3366 21.387 19.2857 21.8421L18.4588 23.9308C18.1057 23.7642 17.7417 23.6214 17.3694 23.5037C16.9893 23.3829 16.5925 23.3234 16.1937 23.3273H16.2016ZM29.4118 26.192C29.4118 27.8457 29.0069 29.1023 28.197 29.9618C27.3871 30.8214 26.1997 31.2511 24.6348 31.2511C23.096 31.2511 21.9204 30.8188 21.1079 29.954C20.2954 29.0893 19.8852 27.8313 19.8774 26.1802C19.8774 24.5448 20.2863 23.296 21.104 22.4338C21.9217 21.5717 23.1104 21.1406 24.6701 21.1406C26.2376 21.1406 27.4224 21.5691 28.2244 22.426C29.0265 23.2829 29.4288 24.5382 29.4314 26.192H29.4118ZM22.6558 26.192C22.6558 28.0913 23.309 29.0409 24.6152 29.0409C24.907 29.064 25.1997 29.0116 25.4653 28.8888C25.731 28.7659 25.9605 28.5767 26.1318 28.3395C26.4584 27.8823 26.6203 27.1638 26.6177 26.1841C26.6151 25.2044 26.4505 24.486 26.124 24.0288C25.9581 23.7964 25.7358 23.61 25.478 23.4873C25.2202 23.3646 24.9354 23.3095 24.6505 23.3273C23.3181 23.3273 22.6532 24.2848 22.6558 26.1998V26.192ZM37.124 31.114H29.9957V29.3701L32.394 26.9444C33.0811 26.2285 33.5292 25.7387 33.7382 25.4748C33.9127 25.2741 34.0602 25.0515 34.1771 24.8126C34.2593 24.6261 34.302 24.4246 34.3025 24.2208C34.307 24.1084 34.2874 23.9963 34.2448 23.8922C34.2022 23.788 34.1376 23.6943 34.0556 23.6173C33.8578 23.458 33.6076 23.3784 33.3541 23.394C33.0242 23.4007 32.7016 23.4924 32.4175 23.6604C32.0388 23.8793 31.6819 24.1339 31.3516 24.4207L29.8938 22.716C30.2842 22.3491 30.7125 22.0246 31.1714 21.7481C31.5227 21.5485 31.8998 21.3982 32.2921 21.3013C32.7408 21.1912 33.2017 21.1385 33.6637 21.1446C34.2481 21.135 34.8279 21.2498 35.3645 21.4816C35.8411 21.679 36.2497 22.0114 36.5401 22.4378C36.817 22.8498 36.9619 23.3364 36.9555 23.8329C36.9576 24.1932 36.9088 24.5521 36.8105 24.8988C36.7064 25.2403 36.5561 25.5659 36.3638 25.8667C36.1347 26.2226 35.8723 26.5559 35.58 26.8621C35.2482 27.2148 34.5376 27.8784 33.4482 28.8528V28.9194H37.1632V31.1061L37.124 31.114ZM36.0542 14.0947C36.6748 13.9953 37.3027 13.9481 37.9313 13.9536C39.2796 13.9444 40.6147 14.2188 41.8502 14.7589C43.0856 15.299 44.1937 16.0927 45.1027 17.0886C45.5369 17.5641 45.9301 18.0753 46.2783 18.6169C47.5598 20.731 48.2085 23.168 48.1476 25.6394C48.1201 28.1122 47.4539 30.5732 46.0902 32.3837C45.1787 33.5706 44.0295 34.5543 42.7161 35.2718C41.2723 36.0482 39.7261 36.6168 38.1233 36.9608L37.802 37H9.16342H8.98316C8.00235 36.8826 7.04161 36.6348 6.12636 36.2633C5.26808 35.9129 4.46852 35.4332 3.75549 34.8407C3.10565 34.2987 2.52637 33.6773 2.03122 32.9911C0.725091 31.1792 0.0156026 29.0055 0.00128393 26.7719C-0.035786 24.5143 0.730917 22.317 2.16446 20.5724C2.66361 19.9809 3.23499 19.4542 3.86521 19.0049C4.66904 18.4311 5.54364 17.9635 6.46729 17.6137C7.16867 17.3377 7.88897 17.1125 8.62263 16.9397C9.36576 13.8105 11.1513 11.0273 13.6857 9.04725C15.8907 7.35707 18.5293 6.32583 21.296 6.07289C24.0587 5.8019 26.843 6.28966 29.3491 7.48366C32.2591 8.87754 34.6193 11.2046 36.0542 14.0947Z" fill="#B78A16"/>
</g>
<defs>
<clipPath id="clip0_5252_7173">
<rect width="57.4641" height="37" fill="white"/>
</clipPath>
</defs>
</svg>
